<svg width="95" height="95" viewBox="0 0 95 95" fill="none" xmlns="http://www.w3.org/2000/svg">
<g filter="url(#filter0_d_7_99)">
<circle cx="47.5" cy="43.5" r="27.5" fill="white"/>
</g>
<path d="M55.8264 38.8175C55.6523 38.6432 55.4455 38.505 55.218 38.4107C54.9904 38.3164 54.7465 38.2679 54.5002 38.2679C54.2538 38.2679 54.0099 38.3164 53.7823 38.4107C53.5548 38.505 53.348 38.6432 53.1739 38.8175L47.4414 44.5487C47.3242 44.6659 47.1653 44.7317 46.9995 44.7317C46.8338 44.7317 46.6749 44.6659 46.5577 44.5487L40.8264 38.8175C40.4748 38.4657 39.9979 38.2681 39.5006 38.2679C39.0033 38.2678 38.5263 38.4653 38.1745 38.8169C37.8228 39.1684 37.6251 39.6453 37.625 40.1427C37.6249 40.64 37.8223 41.117 38.1739 41.4687L43.9064 47.2012C44.3127 47.6075 44.795 47.9298 45.3258 48.1497C45.8566 48.3696 46.4256 48.4828 47.0002 48.4828C47.5747 48.4828 48.1437 48.3696 48.6745 48.1497C49.2053 47.9298 49.6876 47.6075 50.0939 47.2012L55.8264 41.4687C56.1779 41.1171 56.3754 40.6403 56.3754 40.1431C56.3754 39.6459 56.1779 39.1691 55.8264 38.8175Z" fill="#262525"/>
<defs>
<filter id="filter0_d_7_99" x="0" y="0" width="95" height="95" filterUnits="userSpaceOnUse" color-interpolation-filters="sRGB">
<feFlood flood-opacity="0" result="BackgroundImageFix"/>
<feColorMatrix in="SourceAlpha" type="matrix" values="0 0 0 0 0 0 0 0 0 0 0 0 0 0 0 0 0 0 127 0" result="hardAlpha"/>
<feOffset dy="4"/>
<feGaussianBlur stdDeviation="10"/>
<feComposite in2="hardAlpha" operator="out"/>
<feColorMatrix type="matrix" values="0 0 0 0 0.8625 0 0 0 0 0.8625 0 0 0 0 0.8625 0 0 0 1 0"/>
<feBlend mode="normal" in2="BackgroundImageFix" result="effect1_dropShadow_7_99"/>
<feBlend mode="normal" in="SourceGraphic" in2="effect1_dropShadow_7_99" result="shape"/>
</filter>
</defs>
</svg>
